<svg version="1.1" xmlns="http://www.w3.org/2000/svg" xmlns:xlink="http://www.w3.org/1999/xlink" x="0px" y="0px"
	 viewBox="0 0 344.3 515.7" style="enable-background:new 0 0 344.3 515.7;" xml:space="preserve">

<g id="Layer_2">
	<path class="st1" d="M156.7,335.7c0,0-3.1-56.3-82.6-40.2S-31.4,448,48.7,493.5s214.1,18.6,255.5-57.5s19.5-158.7-21-200.8
		S147.1,134,184.8,63.8s160.2-10.8,73.3,72.4c0,0,30.6,24.7,57.8,6.5c27.2-18.3,64.7-113.5-49.8-138.6S77.5,75.6,82.4,118.6
		s3.7,55.4,85.7,143.5s53.2,183.4-2.8,197.4c-56,13.9-90-20.7-88.2-61.6C79,357.1,107.5,335.4,156.7,335.7z" fill="#ffffff"/>
</g>
</svg>
