<?xml version="1.0" encoding="utf-8"?>
<!-- Generator: Adobe Illustrator 19.0.0, SVG Export Plug-In . SVG Version: 6.00 Build 0)  -->
<svg version="1.1" id="Layer_1" xmlns="http://www.w3.org/2000/svg" xmlns:xlink="http://www.w3.org/1999/xlink" x="0px" y="0px"
	 viewBox="0 0 1944 2592" style="enable-background:new 0 0 1944 2592;" xml:space="preserve">
<style type="text/css">
	.st0{fill:#181F2B;}
	.st1{fill:#0A0603;}
	.st2{fill:#050817;}
	.st3{fill:#080B0F;}
	.st4{fill:#0D0E19;}
	.st5{fill:#010818;}
	.st6{fill:#02030C;}
	.st7{fill:#070E1A;}
	.st8{fill:#0B1127;}
	.st9{fill:#0D1326;}
	.st10{fill:#0B1222;}
	.st11{fill:#152132;}
	.st12{fill:#242A3B;}
	.st13{fill:#132031;}
	.st14{fill:#111D2E;}
	.st15{fill:#1C2537;}
	.st16{fill:#071022;}
	.st17{fill:#152034;}
	.st18{fill:#192132;}
	.st19{fill:#182133;}
	.st20{fill:#00070B;}
	.st21{fill:#BF5F5C;}
	.st22{fill:#C36966;}
	.st23{fill:#B84F4B;}
	.st24{fill:#BC5854;}
	.st25{fill:#915453;}
	.st26{fill:#9D6665;}
	.st27{fill:#BB5653;}
	.st28{fill:#B84D49;}
	.st29{fill:none;}
	.st30{fill:#BE5D5A;}
	.st31{fill:#C26865;}
	.st32{fill:#CC7F7C;}
	.st33{fill:#C97875;}
	.st34{fill:#BF615D;}
	.st35{fill:#C0837E;}
	.st36{fill:#BD7C77;}
	.st37{fill:#B8726D;}
	.st38{fill:#CA7B79;}
	.st39{fill:#985E5E;}
	.st40{fill:#BB8580;}
	.st41{fill:#AB6862;}
	.st42{fill:#C28681;}
	.st43{fill:#A06B6A;}
	.st44{fill:#965D5C;}
	.st45{fill:#8E4F4E;}
	.st46{fill:#9F6968;}
	.st47{fill:#C48A86;}
	.st48{fill:#C46B68;}
	.st49{fill:#AE6E69;}
	.st50{fill:#943D4A;}
	.st51{fill:#DCB0BE;}
	.st52{fill:#D8A7B6;}
	.st53{fill:#D7A5B4;}
	.st54{fill:#D5A1B1;}
	.st55{fill:#A83B5D;}
	.st56{fill:#B14E6D;}
	.st57{fill:#B45673;}
	.st58{fill:#C47991;}
	.st59{fill:#BF6E87;}
	.st60{fill:#C1748C;}
	.st61{fill:#C1728A;}
	.st62{fill:#AC4263;}
	.st63{fill:#BD6A84;}
	.st64{fill:#B73636;}
	.st65{fill:#8C4D4D;}
	.st66{fill:#B52042;}
	.st67{fill:#BE3B59;}
	.st68{fill:#B53232;}
	.st69{fill:#DAABB9;}
	.st70{fill:#CD687F;}
	.st71{fill:#C5AF7A;}
	.st72{fill:#B2954D;}
	.st73{fill:#CDBA8B;}
	.st74{fill:#DACCAA;}
	.st75{fill:#BAA060;}
	.st76{fill:#B49853;}
	.st77{fill:#C6B07C;}
	.st78{fill:#D3C39A;}
	.st79{fill:#B9A039;}
	.st80{fill:#968240;}
	.st81{fill:#B89E35;}
	.st82{fill:#BBA162;}
	.st83{fill:#CFBD91;}
	.st84{fill:#D2C197;}
	.st85{fill:#AD8E42;}
	.st86{fill:#AC8D40;}
	.st87{fill:#C6B15D;}
	.st88{fill:#BDA645;}
	.st89{fill:#8F8352;}
	.st90{fill:#9F956B;}
	.st91{fill:#B09249;}
	.st92{fill:#C4B059;}
	.st93{fill:#ABA37E;}
	.st94{fill:#AEA581;}
	.st95{fill:#C7B361;}
	.st96{fill:#AB8B3E;}
	.st97{fill:#B79C59;}
	.st98{fill:#D5BE7D;}
	.st99{fill:#8E8251;}
	.st100{fill:#A29970;}
	.st101{fill:#C5A64D;}
	.st102{fill:#C3A247;}
	.st103{fill:#B2AA88;}
	.st104{fill:#C4A54B;}
	.st105{fill:#CCB163;}
	.st106{fill:#CDB265;}
	.st107{fill:#B89123;}
	.st108{fill:#D8CAA6;}
	.st109{fill:#DFD3B6;}
	.st110{fill:#9E9469;}
	.st111{fill:#A89761;}
	.st112{fill:#B2964F;}
	.st113{fill:#A29055;}
	.st114{fill:#D79CE3;}
	.st115{fill:#CD85DD;}
	.st116{fill:#E0B3EA;}
	.st117{fill:#E4BDEC;}
	.st118{fill:#BC59D1;}
	.st119{fill:#DBA6E6;}
	.st120{fill:#B345CB;}
	.st121{fill:#C775D8;}
	.st122{fill:#D89EE4;}
	.st123{fill:#C878D9;}
	.st124{fill:#CF8ADE;}
	.st125{fill:#B74DCD;}
	.st126{fill:#C166D4;}
	.st127{fill:#CC82DC;}
	.st128{fill:#C97ADA;}
	.st129{fill:#C46ED6;}
	.st130{fill:#BB57D0;}
	.st131{fill:#B03DC9;}
	.st132{fill:#CA7DDB;}
	.st133{fill:#C570D7;}
	.st134{fill:#BF61D3;}
	.st135{fill:#D291E0;}
	.st136{fill:#DAA3E5;}
	.st137{fill:#B242CA;}
	.st138{fill:#AE38C7;}
	.st139{fill:#A726C2;}
	.st140{fill:#C063D3;}
	.st141{fill:#D596E2;}
	.st142{fill:#B952CE;}
	.st143{fill:#B140C9;}
	.st144{fill:#AA2EC4;}
	.st145{fill:#AD36C7;}
	.st146{fill:#CB80DB;}
	.st147{fill:#C36BD6;}
	.st148{fill:#BD5CD1;}
	.st149{fill:#D08CDF;}
	.st150{fill:#C269D5;}
	.st151{fill:#BE5ED2;}
	.st152{fill:#575E98;}
	.st153{fill:#6369A0;}
	.st154{fill:#686ABA;}
	.st155{fill:#A014BD;}
	.st156{fill:#A829C3;}
	.st157{fill:#5D2DAA;}
	.st158{fill:#A521C1;}
	.st159{fill:#9D0DBB;}
	.st160{fill:#9B08BA;}
	.st161{fill:#545A96;}
	.st162{fill:#9700B8;}
	.st163{fill:#6365B8;}
	.st164{fill:#474F8E;}
	.st165{fill:#595BAB;}
	.st166{fill:#6567B8;}
	.st167{fill:#6A6CBA;}
	.st168{fill:#9F12BD;}
	.st169{fill:#6D6FBC;}
	.st170{fill:#E6C2EE;}
	.st171{fill:#D9A1E5;}
	.st172{fill:#B54ACC;}
	.st173{fill:#17AE3F;}
	.st174{fill:#37B959;}
	.st175{fill:#2FB753;}
	.st176{fill:#279E3E;}
	.st177{fill:#43AB57;}
	.st178{fill:#3FA953;}
	.st179{fill:#48AD5B;}
	.st180{fill:#15AD3D;}
	.st181{fill:#0EAB37;}
	.st182{fill:#348E54;}
	.st183{fill:#39B578;}
	.st184{fill:#20AC67;}
	.st185{fill:#32A347;}
	.st186{fill:#45AC59;}
	.st187{fill:#2BB06E;}
	.st188{fill:#37B476;}
	.st189{fill:#34B375;}
	.st190{fill:#3A9259;}
	.st191{fill:#1EAB65;}
	.st192{fill:#439760;}
	.st193{fill:#369056;}
	.st194{fill:#478968;}
	.st195{fill:#3E945D;}
	.st196{fill:#3C935B;}
	.st197{fill:#23B249;}
	.st198{fill:#389157;}
	.st199{fill:#3B815E;}
	.st200{fill:#72A58B;}
	.st201{fill:#41955E;}
	.st202{fill:#308C50;}
	.st203{fill:#2B8A4D;}
	.st204{fill:#299F3F;}
	.st205{fill:#21B247;}
	.st206{fill:#2BB54F;}
	.st207{fill:#32B755;}
	.st208{fill:#A9DBDB;}
	.st209{fill:#DEE3EE;}
	.st210{fill:#12A3B5;}
	.st211{fill:#99A8C9;}
	.st212{fill:#628A9F;}
	.st213{fill:#D8DEEB;}
	.st214{fill:#D0D7E6;}
	.st215{fill:#ABB7D3;}
	.st216{fill:#25ABBB;}
	.st217{fill:#42728C;}
	.st218{fill:#688EA3;}
	.st219{fill:#B1C5D0;}
	.st220{fill:#59BFCB;}
	.st221{fill:#DCE1ED;}
	.st222{fill:#C4CCE0;}
	.st223{fill:#8294BE;}
	.st224{fill:#91A1C5;}
	.st225{fill:#5E75AA;}
	.st226{fill:#6C81B2;}
	.st227{fill:#2382B5;}
	.st228{fill:#9AD4D5;}
	.st229{fill:#8DD3DC;}
	.st230{fill:#6EC7D2;}
	.st231{fill:#90D0D1;}
	.st232{fill:#ACDFE5;}
	.st233{fill:#87CCCE;}
	.st234{fill:#BCE3E3;}
	.st235{fill:#5870A7;}
	.st236{fill:#A7B4D1;}
	.st237{fill:#2DA6A8;}
	.st238{fill:#335094;}
	.st239{fill:#97D7DE;}
	.st240{fill:#4D67A2;}
	.st241{fill:#95A4C7;}
	.st242{fill:#A9CEE2;}
	.st243{fill:#93C2DB;}
	.st244{fill:#96D3D4;}
	.st245{fill:#1D1822;}
</style>
<image style="display:none;overflow:visible;" width="1944" height="2592" xlink:href="920BB5DE.jpg"  transform="matrix(1 0 0 1 4 -2.6667)">
</image>
<g id="Right_Sock">
	<polygon class="st0" points="1028.5,2381 1095,2427.5 1079.5,2466.5 	"/>
	<polygon class="st1" points="1079.5,2466.5 1108.5,2497.5 1150.5,2492.5 	"/>
	<polygon class="st2" points="1150.5,2492.5 1095,2427.5 1079.5,2466.5 	"/>
	<polygon class="st3" points="1150.5,2492.5 1157,2460 1095,2427.5 	"/>
	<polygon class="st4" points="1108.5,2497.5 974.5,2455.5 1079.5,2466.5 	"/>
	<polygon class="st5" points="1079.5,2466.5 1028.5,2381 974.5,2455.5 	"/>
	<polygon class="st6" points="974.5,2455.5 912,2439 912,2352 	"/>
	<polygon class="st7" points="1028.5,2381 912,2352 974.5,2455.5 	"/>
	<polygon class="st8" points="1028.5,2381 904,2256.5 912,2352 	"/>
	<polygon class="st9" points="1002.75,2355.25 994,2175.5 904,2256.5 	"/>
	<polygon class="st10" points="904,2256.5 883.5,2132 994,2175.5 	"/>
</g>
<g id="Left_Sock">
	<polygon class="st11" points="778,2423.75 784.6667,2460 681.3333,2510.6667 	"/>
	<polygon class="st12" points="784.6667,2460 804,2488.6667 720.6667,2553.3333 	"/>
	<polygon class="st13" points="681.3333,2510.6667 720.6667,2553.3333 784.6667,2460 	"/>
	<polygon class="st14" points="681.3333,2510.6667 676,2441.3333 778,2423.75 	"/>
	<polygon class="st15" points="676,2441.3333 689.3333,2324 778,2423.75 	"/>
	<polygon class="st16" points="778,2423.75 778,2368.6667 689.3333,2324 	"/>
	<polygon class="st17" points="778,2368.6667 767.3333,2286.6667 689.3333,2324 	"/>
	<polygon class="st18" points="689.3333,2324 676,2194.25 767.3333,2286.6667 	"/>
	<polygon class="st19" points="767.3333,2286.6667 789.3333,2126.6667 676,2194.25 	"/>
	<polygon class="st20" points="804,2488.6667 807.3333,2550.3333 720.6667,2553.3333 	"/>
</g>
<g id="Pants">
	<polygon class="st21" points="994,2175.5 1002.75,2042.5 883.5,2132 	"/>
	<polygon class="st22" points="883.5,2132 883.5,2042.5 1002.75,2042.5 	"/>
	<polygon class="st23" points="883.5,2042.5 896,1963.5 1002.75,2042.5 	"/>
	<polygon class="st24" points="1002.75,2042.5 1000,2005.5 951.1422,2004.3079 	"/>
	<polygon class="st25" points="1000,2005.5 1016,1963.5 896,1963.5 	"/>
	<polygon class="st26" points="1000,2005.5 896,1963.5 951.1422,2004.3079 	"/>
	<polygon class="st27" points="1016,1963.5 1016,1891 896,1963.5 	"/>
	<polygon class="st24" points="1016,1891 1055,1695.5 888,1816.5 	"/>
	<polygon class="st28" points="1016,1891 888,1816.5 896,1963.5 	"/>
	<polygon class="st23" points="888,1816.5 884,1671.5 1055,1695.5 	"/>
	<polygon class="st29" points="884,1671.5 937,1586 937,1498.5 	"/>
	<polygon class="st30" points="884,1671.5 937,1586 1055,1695.5 	"/>
	<polygon class="st31" points="937,1586 1045.5,1464 1055,1695.5 	"/>
	<polygon class="st32" points="937,1586 937,1498.5 1045.5,1464 	"/>
	<polygon class="st33" points="789.3333,2126.6667 793.3333,2030.6666 685.3333,2017.3334 	"/>
	<polygon class="st34" points="685.3333,2017.3334 676,2194.25 789.3333,2126.6667 	"/>
	<polygon class="st35" points="884,1671.5 868.6667,1714.6666 739.3333,1806 	"/>
	<polygon class="st36" points="868.6667,1714.6666 852.6667,1838.6666 739.3333,1806 	"/>
	<polygon class="st37" points="739.3333,1806 702.6667,1957.3334 852.6667,1838.6666 	"/>
	<polygon class="st33" points="852.6667,1838.6666 836,1932 702.6667,1957.3334 	"/>
	<polygon class="st32" points="836,1932 826,1995.3334 726.0428,1952.8918 	"/>
	<polygon class="st26" points="702.6667,1957.3334 685.3333,2017.3334 726.0428,1952.8918 	"/>
	<polygon class="st38" points="685.3333,2017.3334 808,2010 793.3333,2030.6666 	"/>
	<polygon class="st39" points="726.0428,1952.8918 808,2010 685.3333,2017.3334 	"/>
	<polygon class="st40" points="726.0428,1952.8918 826,1995.3334 808,2010 	"/>
	<polygon class="st41" points="707.3333,1723.3334 702.6667,1957.3334 739.3333,1806 	"/>
	<polygon class="st24" points="707.3333,1723.3334 811.6667,1738.75 739.3333,1806 	"/>
	<polygon class="st42" points="739.3333,1621.3334 750.8012,1729.7563 811.6667,1738.75 	"/>
	<polygon class="st36" points="739.3333,1621.3334 884,1671.5 811.6667,1738.75 	"/>
	<polygon class="st43" points="739.3333,1621.3334 857.261,1491.4889 884,1671.5 	"/>
	<polygon class="st44" points="707.3333,1569.3334 739.3333,1621.3334 721.3333,1484 	"/>
	<polygon class="st45" points="721.3333,1484 810,1487.3334 739.3333,1621.3334 	"/>
	<polygon class="st46" points="810,1487.3334 857.261,1491.4889 739.3333,1621.3334 	"/>
	<polygon class="st47" points="857.261,1491.4889 884,1671.5 937,1498.5 	"/>
	<polygon class="st48" points="937,1498.5 937,1586 884,1671.5 	"/>
	<polygon class="st49" points="810,1487.3334 921.3333,1464 1045.5,1464 	"/>
	<polygon class="st41" points="810,1487.3334 937,1498.5 1045.5,1464 	"/>
	<polygon class="st29" points="810,1487.3334 921.3333,1464 1045.5,1464 	"/>
</g>
<g id="Coffee">
	<polygon class="st29" points="978.3333,707.8333 960.75,711.3333 915.5,678.75 	"/>
	<polygon class="st50" points="978.3333,707.8333 972,677.5 937.335,688.8566 	"/>
	<polygon class="st51" points="937.335,688.8566 972,677.5 953.5,655 	"/>
	<polygon class="st52" points="915.5,678.75 953.5,655 937.335,688.8566 	"/>
	<polygon class="st53" points="915.5,678.75 911.75,652.5 953.5,655 	"/>
	<polygon class="st54" points="911.75,652.5 928,644.75 953.5,655 	"/>
	<polygon class="st55" points="911.75,652.5 893.75,685.25 915.5,678.75 	"/>
	<polygon class="st56" points="893.75,685.25 870.5,704.8333 874,728.25 	"/>
	<polygon class="st57" points="915.5,678.75 915.5,713.75 893.75,685.25 	"/>
	<polygon class="st58" points="893.75,685.25 874,728.25 901.75,733.163 	"/>
	<polygon class="st59" points="893.75,685.25 915.5,713.75 901.75,733.163 	"/>
	<polygon class="st60" points="915.5,678.75 960.75,711.3333 915.5,713.75 	"/>
	<polygon class="st61" points="960.75,711.3333 946.6667,740.1667 915.5,713.75 	"/>
	<polygon class="st62" points="934.5,755.375 901.75,733.163 946.6667,740.1667 	"/>
	<polygon class="st63" points="946.6667,740.1667 915.5,713.75 901.75,733.163 	"/>
	<polygon class="st64" points="934.5,755.375 901.75,733.163 882.125,755.375 	"/>
	<polygon class="st65" points="882.125,755.375 874,728.25 865.0833,735.75 	"/>
	<polygon class="st66" points="861.5,713.75 870.5,704.8333 874,728.25 	"/>
	<polygon class="st67" points="861.5,713.75 874,728.25 865.0833,735.75 	"/>
	<polygon class="st68" points="882.125,755.375 934.5,755.375 919.75,769.6232 	"/>
	<polygon class="st69" points="915.5,678.75 978.3333,707.8333 960.75,711.3333 	"/>
	<polygon class="st70" points="874,728.25 882.125,755.375 901.75,733.163 	"/>
</g>
<g id="Left_Arm">
	<polygon class="st71" points="747.67,1700.1527 726.25,1692.5 745.0302,1675.194 	"/>
	<polygon class="st72" points="726.25,1692.5 714.25,1639.5 745.0302,1675.194 	"/>
	<polygon class="st73" points="745.0302,1675.194 739.3333,1621.3334 714.25,1639.5 	"/>
	<polygon class="st74" points="739.3333,1621.3334 707.3333,1569.3334 665.25,1600.5 	"/>
	<polygon class="st75" points="739.3333,1621.3334 702.6667,1611.0221 714.25,1639.5 	"/>
	<polygon class="st76" points="702.6667,1611.0221 665.25,1600.5 665.25,1634.5 	"/>
	<polygon class="st77" points="702.6667,1611.0221 665.25,1634.5 682.75,1671.5 	"/>
	<polygon class="st78" points="702.6667,1611.0221 714.25,1639.5 682.75,1671.5 	"/>
	<polygon class="st79" points="714.25,1639.5 705.6233,1648.2637 711.75,1680.0416 	"/>
	<polygon class="st80" points="714.25,1639.5 711.75,1680.0416 726.25,1692.5 	"/>
	<polygon class="st81" points="739.3333,1702.75 747.67,1700.1527 726.25,1692.5 	"/>
	<polygon class="st82" points="739.3333,1702.75 735,1709.25 717.75,1694.75 	"/>
	<polygon class="st77" points="717.75,1694.75 698.5,1706 735,1709.25 	"/>
	<polygon class="st71" points="735,1709.25 698.5,1706 735,1724.75 	"/>
	<polygon class="st83" points="717.75,1694.75 711.75,1680.0416 698.5,1706 	"/>
	<polygon class="st84" points="711.75,1680.0416 682.75,1671.5 705.6233,1648.2637 	"/>
	<polygon class="st85" points="711.75,1680.0416 682.75,1671.5 698.5,1706 	"/>
	<polygon class="st86" points="747.67,1700.1527 735,1709.25 746.25,1717.5 	"/>
	<polygon class="st87" points="747.67,1700.1527 739.3333,1702.75 735,1709.25 	"/>
	<polygon class="st88" points="746.25,1717.5 735,1724.75 750.8012,1729.7563 	"/>
	<polygon class="st89" points="735,1724.75 698.5,1706 707.3333,1723.3334 	"/>
	<polygon class="st90" points="704.1058,1717 683.9583,1715.375 669.625,1688.75 	"/>
	<polygon class="st91" points="692.5519,1707.5341 684.625,1690.375 704.1058,1717 	"/>
	<polygon class="st76" points="684.625,1690.375 686.3071,1679.2919 704.1058,1717 	"/>
	<polygon class="st92" points="684.625,1690.375 671.7598,1648.2637 682.75,1671.5 686.3071,1679.2919 	"/>
	<polygon class="st93" points="665.25,1634.5 654.75,1664.1526 669.625,1688.75 	"/>
	<polygon class="st94" points="667.2276,1659.022 684.625,1690.375 669.625,1688.75 	"/>
	<polygon class="st95" points="669.625,1688.75 684.625,1690.375 692.5519,1707.5341 	"/>
	<polygon class="st96" points="667.2276,1659.022 671.7598,1648.2637 665.25,1634.5 	"/>
	<polygon class="st97" points="667.2276,1659.022 684.625,1690.375 671.7598,1648.2637 	"/>
	<polygon class="st98" points="707.3333,1569.3334 665.25,1454 665.25,1600.5 	"/>
	<polygon class="st99" points="654.75,1664.1526 639.3333,1569.3334 665.25,1634.5 	"/>
	<polygon class="st93" points="665.25,1634.5 665.25,1454 639.3333,1569.3334 	"/>
	<polygon class="st100" points="639.3333,1569.3334 622,1438.6666 665.25,1454 	"/>
	<polygon class="st101" points="687.6934,1515.5083 697.25,1380.6666 665.25,1454 	"/>
	<polygon class="st102" points="622,1438.6666 697.25,1380.6666 665.25,1454 	"/>
	<polygon class="st103" points="622,1438.6666 612,1363.5 697.25,1380.6666 	"/>
	<polygon class="st104" points="612,1363.5 612,1281 697.25,1380.6666 	"/>
	<polygon class="st105" points="612,1281 705,1225 693,1296 	"/>
	<polygon class="st106" points="612,1281 693,1296 697.25,1380.6666 	"/>
	<polygon class="st107" points="705,1225 626.5,1169 612,1281 	"/>
	<polygon class="st108" points="705,1225 710.5,1166 626.5,1169 	"/>
	<polygon class="st109" points="710.5,1166 726.6667,1116.6666 626.5,1169 	"/>
	<polygon class="st82" points="726.6667,1116.6666 657.8519,1095.5834 626.5,1169 	"/>
	<polygon class="st110" points="657.8519,1095.5834 635.5,1101.5 626.5,1169 	"/>
	<polygon points="735,1709.25 746.25,1717.5 735,1724.75 	"/>
	<polygon class="st111" points="750.8012,1729.7563 735,1724.75 707.3333,1723.3334 	"/>
	<polygon class="st112" points="747.67,1700.1527 750.8012,1729.7563 746.25,1717.5 	"/>
	<polygon class="st29" points="735,1709.25 746.25,1717.5 735,1724.75 	"/>
	<polygon class="st113" points="717.75,1694.75 739.3333,1702.75 726.25,1692.5 	"/>
	<polygon class="st79" points="711.75,1680.0416 717.75,1694.75 726.25,1692.5 	"/>
</g>
<g id="Head">
	<polygon class="st29" points="889.5,936 837.5,851.75 921.3333,905 	"/>
	<polygon class="st114" points="889.5,936 921.3333,905 922.3567,926.483 	"/>
	<polygon class="st115" points="921.3333,905 916.75,848.75 898.3234,890.3844 	"/>
	<polygon class="st116" points="916.75,848.75 837.5,851.75 898.3234,890.3844 	"/>
	<polygon class="st29" points="837.5,851.75 812.75,862.75 852.6667,931.3528 	"/>
	<polygon class="st117" points="837.5,851.75 889.5,936 852.6667,931.3528 	"/>
	<polygon class="st118" points="812.75,862.75 796.283,924.239 830.6387,893.4945 	"/>
	<polygon class="st119" points="830.6387,893.4945 852.6667,931.3528 796.283,924.239 	"/>
	<polygon class="st120" points="812.75,862.75 794.75,847.75 804.5165,893.4945 	"/>
	<polygon class="st29" points="794.75,847.75 778.5,839.75 782.5,822 	"/>
	<polygon class="st121" points="782.5,822 810.5,822 794.75,847.75 	"/>
	<polygon class="st122" points="810.5,822 837.5,851.75 812.75,862.75 	"/>
	<polygon class="st123" points="810.5,822 794.75,847.75 812.75,862.75 	"/>
	<polygon class="st29" points="810.5,822 808.5,805.25 837.5,830.75 	"/>
	<polygon class="st124" points="810.5,822 837.5,830.75 837.5,851.75 	"/>
	<polygon class="st29" points="837.5,830.75 855.25,818 882.9916,850.0279 	"/>
	<polygon class="st121" points="837.5,830.75 837.5,851.75 882.9916,850.0279 	"/>
	<polygon class="st123" points="855.25,818 932.25,803.5 919.75,782.4039 	"/>
	<polygon class="st125" points="855.25,818 808.5,805.25 837.5,830.75 	"/>
	<polygon class="st118" points="808.5,805.25 821.25,784.5 835.5981,812.6404 	"/>
	<polygon class="st126" points="808.5,805.25 794.75,757.75 821.25,784.5 	"/>
	<polygon class="st114" points="821.25,784.5 919.75,782.4039 855.25,818 	"/>
	<polygon class="st127" points="821.25,784.5 835.5981,812.6404 855.25,818 	"/>
	<polygon class="st128" points="794.75,757.75 830.6387,738.5 821.25,784.5 	"/>
	<polygon class="st129" points="830.6387,738.5 803.2565,729.502 794.75,757.75 	"/>
	<polygon class="st122" points="830.6387,738.5 877.125,783.3333 821.25,784.5 	"/>
	<polygon class="st130" points="932.25,803.5 928,830.75 855.25,818 	"/>
	<polygon class="st131" points="928,830.75 916.75,848.75 890.5911,824.1938 	"/>
	<polygon class="st121" points="890.5911,824.1938 882.9916,850.0279 855.25,818 	"/>
	<polygon class="st132" points="890.5911,824.1938 916.75,848.75 882.9916,850.0279 	"/>
	<polygon class="st29" points="830.6387,725.5 835.5981,713.75 841.25,722.8333 	"/>
	<polygon class="st133" points="835.5981,713.75 845.25,713.75 841.25,722.8333 	"/>
	<polygon class="st29" points="841.25,722.8333 849.5417,723.125 849.1875,719.375 	"/>
	<polygon class="st120" points="843.4615,717.8114 849.1875,719.375 841.25,722.8333 	"/>
	<polygon class="st134" points="845.25,713.75 849.1875,719.375 843.4615,717.8114 	"/>
	<polygon class="st114" points="830.6387,738.5 859.6667,737 877.125,783.3333 	"/>
	<polygon class="st135" points="859.6667,737 896.9976,782.8881 877.125,783.3333 	"/>
	<polygon class="st122" points="877.125,758.4602 919.75,782.4039 896.9976,782.8881 	"/>
	<polygon class="st124" points="896.9976,769.6232 919.75,769.6232 919.75,782.4039 	"/>
	<polygon class="st29" points="934.5,755.375 919.75,769.6232 882.125,755.375 	"/>
	<polygon class="st136" points="919.75,769.6232 882.125,755.375 877.125,758.4602 	"/>
	<polygon class="st135" points="919.75,769.6232 896.9976,769.6232 877.125,758.4602 	"/>
	<polygon class="st137" points="882.125,755.375 865.0833,735.75 877.125,758.4602 	"/>
	<polygon class="st138" points="865.0833,735.75 859.6667,737 877.125,758.4602 	"/>
	<polygon class="st139" points="859.6667,737 852.5,724.25 861.5,713.75 	"/>
	<polygon class="st120" points="865.0833,735.75 859.6667,737 861.5,713.75 	"/>
	<polygon class="st128" points="782.5,822 808.5,805.25 810.5,822 	"/>
	<polygon class="st29" points="782.5,822 760.5,818 755.75,803.5 	"/>
	<polygon class="st140" points="800.7586,810.2372 772.8637,815.3356 782.5,822 	"/>
	<polygon class="st119" points="805.3687,794.4327 800.7586,810.2372 808.5,805.25 	"/>
	<polygon class="st141" points="755.75,803.5 767.75,791.5 772.8637,815.3356 	"/>
	<polygon class="st29" points="767.75,791.5 786.5999,789.25 784.4927,813.2102 	"/>
	<polygon class="st129" points="767.75,791.5 784.4927,813.2102 772.8637,815.3356 	"/>
	<polygon class="st127" points="786.5999,789.25 805.3687,794.4327 800.7586,810.2372 	"/>
	<polygon class="st142" points="786.5999,789.25 784.4927,813.2102 800.7586,810.2372 	"/>
	<polygon class="st130" points="786.5999,789.25 798.9321,772.1973 805.3687,794.4327 	"/>
	<polygon class="st29" points="808.6218,731.2651 816.75,713.75 820.625,718.2917 	"/>
	<polygon class="st126" points="820.625,718.2917 811.9984,732.3746 808.6218,731.2651 	"/>
	<polygon class="st29" points="820.625,718.2917 832.875,708.25 828,704.8333 	"/>
	<polygon class="st143" points="816.75,713.75 828,704.8333 820.625,718.2917 	"/>
	<polygon class="st138" points="828,704.8333 843.4615,700.5 832.875,708.25 	"/>
	<polygon class="st144" points="843.4615,700.5 853.8819,699.875 850,706.75 	"/>
	<polygon class="st145" points="832.875,708.25 850,706.75 843.4615,700.5 	"/>
	<polygon class="st146" points="835.5981,713.75 820.625,718.2917 830.6387,725.5 	"/>
	<polygon class="st129" points="835.5981,713.75 832.875,708.25 820.625,718.2917 	"/>
	<polygon class="st147" points="835.5981,713.75 850,706.75 832.875,708.25 	"/>
	<polygon class="st148" points="845.25,713.75 850,706.75 835.5981,713.75 	"/>
	<polygon class="st141" points="830.6387,725.5 820.625,735.2094 820.625,718.2917 	"/>
	<polygon class="st149" points="820.625,718.2917 811.9984,732.3746 820.625,735.2094 	"/>
	<polygon class="st29" points="816.75,713.75 808,713.75 803.2565,729.502 	"/>
	<polygon class="st134" points="816.75,713.75 808.6218,731.2651 803.2565,729.502 	"/>
	<polygon class="st129" points="830.6387,725.5 830.6387,738.5 820.625,735.2094 	"/>
	<polygon class="st127" points="830.6387,725.5 841.25,722.8333 844.246,737.7969 	"/>
	<polygon class="st123" points="830.6387,725.5 830.6387,738.5 844.246,737.7969 	"/>
	<polygon class="st127" points="841.25,722.8333 849.5417,723.125 844.246,737.7969 	"/>
	<polygon class="st137" points="849.5417,723.125 852.5,724.25 859.6667,737 	"/>
	<polygon class="st129" points="849.5417,723.125 844.246,737.7969 859.6667,737 	"/>
	<polygon class="st129" points="849.1875,719.375 852.5,724.25 849.5417,723.125 	"/>
	<polygon class="st127" points="845.25,713.75 870.5,704.8333 852.5,724.25 	"/>
	<polygon class="st115" points="853.8819,699.875 870.5,704.8333 845.25,713.75 	"/>
	<polygon class="st150" points="843.4615,700.5 820.625,691.125 828,704.8333 	"/>
	<polygon class="st126" points="820.625,691.125 796.5,706.75 828,704.8333 	"/>
	<polygon class="st140" points="796.5,706.75 808,713.75 814.6234,705.6473 	"/>
	<polygon class="st151" points="814.6234,705.6473 828,704.8333 816.75,713.75 	"/>
	<polygon class="st147" points="814.6234,705.6473 808,713.75 816.75,713.75 	"/>
	<polygon class="st29" points="796.5,706.75 776.75,724.25 794.3751,729.0001 	"/>
	<polygon class="st140" points="796.5,706.75 808,713.75 794.3751,729.0001 	"/>
	<polygon class="st123" points="808,713.75 794.3751,729.0001 794.75,757.75 	"/>
	<polygon class="st152" points="794.3751,729.0001 776.75,724.25 794.75,757.75 	"/>
	<polygon class="st153" points="776.75,724.25 794.75,757.75 772.8637,772.1973 	"/>
	<polygon class="st154" points="772.8637,772.1973 767.75,791.5 794.75,757.75 	"/>
	<polygon class="st155" points="794.75,757.75 798.9321,772.1973 779.5223,776.7845 	"/>
	<polygon class="st156" points="779.5223,776.7845 786.5999,789.25 798.9321,772.1973 	"/>
	<polygon class="st155" points="767.75,791.5 786.5999,789.25 779.5223,776.7845 	"/>
	<polygon class="st157" points="802.6614,900.4212 756.8333,866 778.5,839.75 	"/>
	<polygon class="st158" points="804.5165,893.4945 791.3646,872.054 802.6614,900.4212 	"/>
	<polygon class="st152" points="804.5165,893.4945 794.75,847.75 791.3646,872.054 	"/>
	<polygon class="st159" points="791.3646,872.054 778.5,839.75 794.75,847.75 	"/>
	<polygon class="st160" points="782.5,822 760.5,818 778.5,839.75 	"/>
	<polygon class="st157" points="760.5,818 742.6667,831.6667 778.5,839.75 	"/>
	<polygon class="st157" points="742.6667,831.6667 756.8333,866 778.5,839.75 	"/>
	<polygon class="st161" points="755.75,803.5 736.1667,794.4327 742.6667,831.6667 	"/>
	<polygon class="st162" points="755.75,803.5 742.6667,831.6667 760.5,818 	"/>
	<polygon class="st163" points="736.1667,794.4327 749.5,753.1667 767.75,791.5 	"/>
	<polygon class="st164" points="736.1667,794.4327 767.75,791.5 755.75,803.5 	"/>
	<polygon class="st157" points="767.75,791.5 772.8637,772.1973 749.5,753.1667 	"/>
	<polygon class="st165" points="749.5,753.1667 758,732 775.264,742.5833 	"/>
	<polygon class="st157" points="749.5,753.1667 775.264,742.5833 772.8637,772.1973 	"/>
	<polygon class="st166" points="758,732 776.75,724.25 775.264,742.5833 	"/>
	<polygon class="st167" points="758,732 777.1749,708.25 776.75,724.25 	"/>
	<polygon class="st168" points="777.1749,708.25 796.5,706.75 776.75,724.25 	"/>
	<polygon class="st169" points="777.1749,708.25 797.6667,696.5 796.5,706.75 	"/>
	<polygon class="st152" points="797.6667,696.5 820.625,691.125 796.5,706.75 	"/>
	<polygon class="st170" points="889.5,936 921.3333,905 837.5,851.75 	"/>
	<polygon class="st171" points="852.6667,931.3528 837.5,851.75 812.75,862.75 	"/>
	<polygon class="st133" points="837.5,830.75 855.25,818 882.9916,850.0279 	"/>
	<polygon class="st124" points="808.5,805.25 837.5,830.75 810.5,822 	"/>
	<polygon class="st146" points="928,761.6539 932.25,784.5 919.75,782.4039 	"/>
	<polygon class="st121" points="928,761.6539 919.75,769.6232 919.75,782.4039 	"/>
	<polygon class="st172" points="928,830.75 946.9167,803.5 932.25,803.5 	"/>
	<polygon class="st123" points="932.25,784.5 946.9167,803.5 932.25,803.5 	"/>
	<polygon class="st127" points="919.75,782.4039 932.25,784.5 932.25,803.5 	"/>
	<polygon class="st161" points="816.75,713.75 820.625,718.2917 808.6218,731.2651 	"/>
	<polygon class="st161" points="828,704.8333 832.875,708.25 820.625,718.2917 	"/>
	<polygon class="st142" points="755.75,803.5 782.5,822 760.5,818 	"/>
	<polygon class="st124" points="786.5999,789.25 767.75,791.5 784.4927,813.2102 	"/>
	<polygon class="st145" points="782.5,822 794.75,847.75 778.5,839.75 	"/>
	<polygon class="st137" points="796.5,706.75 776.75,724.25 794.3751,729.0001 	"/>
	<polygon class="st133" points="816.75,713.75 808,713.75 803.2565,729.502 	"/>
	<polygon class="st133" points="830.6387,725.5 841.25,722.8333 835.5981,713.75 	"/>
	<polygon class="st121" points="849.1875,719.375 841.25,722.8333 849.5417,723.125 	"/>
</g>
<g id="Right_Arm">
	<polygon class="st173" points="1093.5,957 1134.6666,944 1181.3334,979.0902 	"/>
	<polygon class="st29" points="1181.3334,979.0902 1083.3334,1029.0177 1073,974.5 	"/>
	<polygon class="st174" points="1181.3334,979.0902 1093.5,957 1073,974.5 	"/>
	<polygon class="st175" points="1073,974.5 1083.3334,1029.0177 1060,1020 	"/>
	<polygon class="st176" points="1083.3334,1029.0177 1060,1020 1056.3546,1039.4728 	"/>
	<polygon class="st177" points="1083.3334,1029.0177 1100,1058.5 1056.3546,1039.4728 	"/>
	<polygon class="st178" points="1056.3546,1039.4728 1100,1058.5 1077.6439,1063.6277 	"/>
	<polygon class="st179" points="1100,1058.5 1192.6666,1039.4728 1083.3334,1029.0177 	"/>
	<polygon class="st180" points="1083.3334,1029.0177 1181.3334,979.0902 1192.6666,1039.4728 	"/>
	<polygon class="st181" points="1192.6666,1039.4728 1275,998.3333 1181.3334,979.0902 	"/>
	<polygon class="st182" points="1181.3334,979.0902 1145.1666,934.1667 1220.3334,892.6667 	"/>
	<polygon class="st183" points="1220.3334,892.6667 1280.8334,953.3333 1181.3334,979.0902 	"/>
	<polygon class="st184" points="1280.8334,953.3333 1275,998.3333 1181.3334,979.0902 	"/>
	<polygon class="st185" points="1158.4857,950.7106 1149.4799,955.1385 1181.3334,979.0902 	"/>
	<polygon class="st186" points="1145.1666,934.1667 1086.6666,872.8333 1173.3118,918.6276 	"/>
	<polygon class="st187" points="1220.3334,892.6667 1125.6666,829.3333 1086.6666,872.8333 	"/>
	<polygon class="st188" points="1220.3334,892.6667 1173.3118,918.6276 1086.6666,872.8333 	"/>
	<polygon class="st189" points="1125.6666,829.3333 1070.5,787 1008.8333,824.6667 	"/>
	<polygon class="st190" points="1125.6666,829.3333 1086.6666,872.8333 1008.8333,824.6667 	"/>
	<polygon class="st191" points="971.3333,803.5 1008.8333,824.6667 1047.4948,801.0519 	"/>
	<polygon class="st192" points="971.3333,803.5 1000.8333,763.1667 1047.4948,801.0519 	"/>
	<polygon class="st193" points="1000.8333,763.1667 1023.8333,738.5 1047.4948,801.0519 	"/>
	<polygon class="st180" points="1023.8333,738.5 1043.6666,743.6667 1047.4948,801.0519 	"/>
	<polygon class="st194" points="946.6667,740.1667 971.3333,803.5 986.7631,782.4039 	"/>
	<polygon class="st183" points="1047.4948,801.0519 1070.5,787 1043.6666,743.6667 	"/>
	<polygon class="st188" points="1053.6666,732 1043.6666,743.6667 1070.5,787 	"/>
	<polygon class="st191" points="1053.6666,732 1027.3334,702.6667 1011,711.3333 	"/>
	<polygon class="st195" points="1029.1799,720.1392 1023.8333,738.5 1053.6666,732 	"/>
	<polygon class="st196" points="1011,711.3333 1015,734.3333 1029.1799,720.1392 	"/>
	<polygon class="st197" points="1015,734.3333 1023.8333,738.5 1029.1799,720.1392 	"/>
	<polygon class="st175" points="1015,734.3333 1000.8333,763.1667 1023.8333,738.5 	"/>
	<polygon class="st198" points="974.1667,751.3333 986.7631,782.4039 1000.8333,763.1667 	"/>
	<polygon class="st199" points="959.3726,745.326 982.8333,730.6667 974.1667,751.3333 	"/>
	<polygon class="st200" points="974.1667,751.3333 991.7073,744.0307 982.8333,730.6667 	"/>
	<polygon class="st185" points="982.8333,730.6667 1015,734.3333 991.7073,744.0307 	"/>
	<polygon class="st201" points="982.8333,730.6667 978.3333,707.8333 994.5833,704.8333 	"/>
	<polygon class="st202" points="982.8333,730.6667 994.5833,704.8333 992.8364,731.8069 	"/>
	<polygon class="st187" points="994.5833,704.8333 1011,711.3333 992.8364,731.8069 	"/>
	<polygon class="st203" points="1011,711.3333 992.8364,731.8069 1005.6738,733.2703 	"/>
	<polygon class="st204" points="1011,711.3333 1015,734.3333 1005.6738,733.2703 	"/>
	<polygon class="st193" points="946.6667,740.1667 965.8333,721 959.3726,745.326 	"/>
	<polygon class="st178" points="965.8333,721 982.8333,730.6667 959.3726,745.326 	"/>
	<polygon class="st205" points="965.8333,721 978.3333,707.8333 982.8333,730.6667 	"/>
	<polygon class="st187" points="946.6667,740.1667 934.5,755.375 961.9971,779.5287 	"/>
	<polygon class="st201" points="978.3333,707.8333 965.8333,721 960.75,711.3333 	"/>
	<polygon class="st206" points="960.75,711.3333 946.6667,740.1667 965.8333,721 	"/>
	<polygon class="st195" points="1073,974.5 1181.3334,979.0902 1083.3334,1029.0177 	"/>
	<polygon class="st207" points="974.1667,751.3333 1015,734.3333 1000.8333,763.1667 	"/>
	<polygon class="st207" points="974.1667,751.3333 961.9971,756.3157 986.7631,782.4039 	"/>
	<polygon class="st29" points="1015,734.3333 974.1667,751.3333 1000.8333,763.1667 	"/>
	<polygon class="st184" points="1023.8333,738.5 1053.6666,732 1043.6666,743.6667 	"/>
	<polygon class="st29" points="986.7631,782.4039 974.1667,751.3333 946.6667,740.1667 	"/>
</g>
<g>
	<polygon class="st208" points="1060,1454 1026,1236 921.3333,1464 	"/>
	<polygon class="st29" points="1026,1236 985.3333,1048.6666 875.3333,1104.6666 	"/>
	<polygon class="st29" points="875.3333,1104.6666 726.6667,1116.6666 732.6667,1249.3334 	"/>
	<polygon class="st209" points="875.3333,1104.6666 732.6667,1249.3334 899.1989,1291.0945 	"/>
	<polygon class="st210" points="732.6667,1249.3334 726.6667,1354 756.507,1255.3118 	"/>
	<polygon class="st211" points="726.6667,1354 899.1989,1291.0945 756.507,1255.3118 	"/>
	<polygon class="st212" points="726.6667,1354 707.3333,1464 721.3333,1484 	"/>
	<polygon class="st213" points="726.6667,1354 921.3333,1464 899.1989,1291.0945 	"/>
	<polygon class="st214" points="726.6667,1354 921.3333,1464 810,1487.3334 	"/>
	<polygon class="st215" points="721.3333,1484 810,1487.3334 726.6667,1354 	"/>
	<polygon class="st216" points="726.6667,1116.6666 707.3333,1215.3334 732.6667,1249.3334 	"/>
	<polygon class="st217" points="707.3333,1215.3334 726.6667,1354 732.6667,1249.3334 	"/>
	<polygon class="st218" points="707.3333,1215.3334 707.3333,1464 726.6667,1354 	"/>
	<polygon class="st219" points="1050.6747,1069.8135 1073,1084.5 1100,1058.5 	"/>
	<polygon class="st220" points="1056.3546,1039.4728 1077.6439,1063.6277 1050.6747,1069.8135 	"/>
	<polygon class="st221" points="875.3333,1104.6666 720,1002.5 985.3333,1048.6666 	"/>
	<polygon class="st222" points="720,1002.5 737.5,1074.5 760.3173,1029.0177 	"/>
	<polygon class="st223" points="760.3173,1029.0177 737.5,1074.5 875.3333,1104.6666 	"/>
	<polygon class="st224" points="737.5,1074.5 726.6667,1116.6666 875.3333,1104.6666 	"/>
	<polygon class="st225" points="720,1002.5 680.5,959 782.5,922.5 	"/>
	<polygon class="st226" points="782.5,922.5 889.5,936 720,1002.5 	"/>
	<polygon class="st227" points="720,1002.5 889.5,936 985.3333,1048.6666 	"/>
	<polygon class="st228" points="1060,1020 889.5,936 985.3333,1048.6666 	"/>
	<polygon class="st29" points="1060,1020 1073,974.5 1048.5,948.5 	"/>
	<polygon class="st229" points="1073,974.5 1093.5,957 1048.5,948.5 	"/>
	<polygon class="st230" points="1048.5,948.5 974.75,941 976.9629,979.0902 	"/>
	<polygon class="st231" points="1048.5,948.5 976.9629,979.0902 1060,1020 	"/>
	<polygon class="st232" points="974.75,941 921.3333,905 923.6106,952.8052 	"/>
	<polygon class="st233" points="974.75,941 923.6106,952.8052 976.9629,979.0902 	"/>
	<polygon class="st234" points="922.3567,926.483 889.5,936 923.6106,952.8052 	"/>
	<polygon class="st222" points="737.5,1074.5 657.8519,1095.5834 726.6667,1116.6666 	"/>
	<polygon class="st235" points="737.5,1074.5 666,1007 720,1002.5 	"/>
	<polygon class="st236" points="720,1002.5 680.5,959 655.5,984.25 	"/>
	<polygon class="st223" points="720,1002.5 655.5,984.25 666,1007 	"/>
	<polygon class="st237" points="655.5,984.25 635.5,1034.5 666,1007 	"/>
	<polygon class="st238" points="636.4273,1032.17 635.5,1101.5 666,1007 	"/>
	<polygon class="st239" points="1048.5,948.5 1073,974.5 1060,1020 	"/>
	<polygon class="st240" points="666,1007 737.5,1074.5 635.5,1101.5 	"/>
	<polygon class="st241" points="726.6667,1116.6666 875.3333,1104.6666 732.6667,1249.3334 	"/>
	<polygon class="st242" points="985.3333,1048.6666 875.3333,1104.6666 1026,1236 	"/>
	<polygon class="st243" points="1026,1236 921.3333,1464 875.3333,1104.6666 	"/>
	<polygon class="st244" points="1042.6836,1112.5 1026,1236 985.3333,1048.6666 	"/>
	<polygon class="st233" points="1060,1454 1026,1236 1042.6836,1112.5 	"/>
	<polygon class="st29" points="737.5,1074.5 666,1007 635.5,1101.5 	"/>
	<polygon class="st233" points="1042.6836,1112.5 1060,1020 985.3333,1048.6666 	"/>
	<polygon class="st245" points="1045.5,1464 1060,1454 921.3333,1464 	"/>
</g>
</svg>
